<svg width="800" height="600" xmlns="http://www.w3.org/2000/svg">
  <defs>
    <linearGradient id="warmBg" x1="0%" y1="0%" x2="100%" y2="100%">
      <stop offset="0%" style="stop-color:#f5ebe0"/>
      <stop offset="100%" style="stop-color:#e8ddd0"/>
    </linearGradient>
    <pattern id="dots" x="0" y="0" width="24" height="24" patternUnits="userSpaceOnUse">
      <circle cx="2" cy="2" r="1" fill="#d9654a" opacity="0.15"/>
    </pattern>
  </defs>
  <rect width="800" height="600" fill="url(#warmBg)"/>
  <rect width="800" height="600" fill="url(#dots)"/>
  <g transform="translate(400, 280)">
    <circle cx="0" cy="0" r="52" fill="#ffffff" opacity="0.6"/>
    <path d="M-20,-15 C-20,-25 -10,-30 0,-30 C10,-30 20,-25 20,-15 L20,5 C20,15 10,25 0,25 C-10,25 -20,15 -20,5 Z" fill="#d9654a" opacity="0.7"/>
    <ellipse cx="0" cy="-8" rx="12" ry="8" fill="#5a9e82" opacity="0.6"/>
    <path d="M-8,8 Q0,18 8,8" stroke="#ffffff" stroke-width="2" fill="none" opacity="0.8"/>
  </g>
</svg>
